<svg id="图层_1" data-name="图层 1" xmlns="http://www.w3.org/2000/svg" xmlns:xlink="http://www.w3.org/1999/xlink" viewBox="0 0 64.01 64"><defs><linearGradient id="未命名的渐变_7" x1="93.79" y1="32.12" x2="-2.44" y2="32.12" gradientUnits="userSpaceOnUse"><stop offset="0" stop-color="#09bbfe"/><stop offset="1" stop-color="#5a42ec"/></linearGradient></defs><title>logo</title><rect x="12.13" y="2" width="38.94" height="60" rx="3" fill="#f2f2f2"/><path d="M48,4.12a1,1,0,0,1,1,1v54a1,1,0,0,1-1,1H15.09a1,1,0,0,1-1-1v-54a1,1,0,0,1,1-1H48m0-4H15.09a5,5,0,0,0-5,5v54a5,5,0,0,0,5,5H48a5,5,0,0,0,5-5v-54a5,5,0,0,0-5-5Z" transform="translate(0.04 -0.12)" fill="#666"/><rect x="17.96" y="19.2" width="27" height="4.33" fill="#666"/><rect x="17.96" y="29.59" width="27" height="4.33" fill="#666"/><rect x="17.96" y="39.99" width="27" height="4.33" fill="#666"/><path d="M0,46.7Q.43,42.41.69,39t.47-8c.13-3,.22-6.22.29-9.58s.1-6,.1-8c2,0,3.68.07,4.93.07s2.89,0,4.76-.11,3.69-.11,5.47-.11a54.18,54.18,0,0,1,5.56.25,13.81,13.81,0,0,1,3.33.7,9.67,9.67,0,0,1,2.53,1.31,8.19,8.19,0,0,1,1.71,1.72,7.55,7.55,0,0,1,1.06,2.23,9.77,9.77,0,0,1,.38,2.75,10.9,10.9,0,0,1-.42,3.07,8.87,8.87,0,0,1-1.3,2.68,8.62,8.62,0,0,1-2.25,2.17A19.59,19.59,0,0,1,23.52,32l1.27,3.1c.35.87.74,1.74,1.14,2.64l3.27,7.15c.15.31.41.92.79,1.83l-5.42-.05c-1.17,0-3.09,0-5.76.05q-.39-1.26-1.42-4.71c-.27-1-.51-1.7-.71-2.22-.39-1.16-1-2.77-1.73-4.86L12.43,28a13.6,13.6,0,0,0,2.59.25,9.16,9.16,0,0,0,3.23-.54,4.32,4.32,0,0,0,2.2-1.66,4.2,4.2,0,0,0,.75-2.37,3.07,3.07,0,0,0-.57-1.84,3.3,3.3,0,0,0-1.77-1.19,13,13,0,0,0-3.72-.39c-.57,0-1.16,0-1.77,0l-2.13.06q-.32,5-.56,12.21T10.37,46.7l-5.31-.05Z" transform="translate(0.04 -0.12)" fill="url(#未命名的渐变_7)"/><path d="M35,46.7q.62-6.3.9-10.54c.19-2.84.37-6.6.56-11.3s.28-7.8.28-9.33l0-2.15q5.76,0,13.94,0,7.55,0,13.3,0l0,.8c0,.2-.06.9-.12,2.12L63.65,19c0,.57,0,1.14,0,1.73-3.14-.13-5.77-.2-7.91-.2H51c-.83,0-2.11.05-3.85.11l-.3,5.62q2.88.08,6.72.07c.91,0,3.34-.05,7.28-.17-.17,2.09-.32,4.57-.47,7.45-2.81,0-5,0-6.49,0-2.24,0-4.76.06-7.54.17L46,39.62h2.81c.83,0,2.54,0,5.15-.07L59,39.43c.74,0,2-.08,3.75-.2q-.29,3.62-.48,7.47-6,0-13.07-.05l-10.74,0Z" transform="translate(0.04 -0.12)" fill="url(#未命名的渐变_7)"/></svg>